<?xml version="1.0" encoding="UTF-8" standalone="no"?>
<!-- Creator: CorelDRAW -->

<svg
   xmlns:dc="http://purl.org/dc/elements/1.1/"
   xmlns:cc="http://creativecommons.org/ns#"
   xmlns:rdf="http://www.w3.org/1999/02/22-rdf-syntax-ns#"
   xmlns:svg="http://www.w3.org/2000/svg"
   xmlns="http://www.w3.org/2000/svg"
   xmlns:sodipodi="http://sodipodi.sourceforge.net/DTD/sodipodi-0.dtd"
   xmlns:inkscape="http://www.inkscape.org/namespaces/inkscape"
   xml:space="preserve"
   width="11in"
   height="8.5in"
   style="shape-rendering:geometricPrecision; text-rendering:geometricPrecision; image-rendering:optimizeQuality; fill-rule:evenodd; clip-rule:evenodd"
   viewBox="0 0 11 8.5"
   id="svg2"
   version="1.1"
   inkscape:version="0.48.5 r10040"
   sodipodi:docname="ResBaz_logo_correct_colour.svg"><metadata
     id="metadata47"><rdf:RDF><cc:Work
         rdf:about=""><dc:format>image/svg+xml</dc:format><dc:type
           rdf:resource="http://purl.org/dc/dcmitype/StillImage" /><dc:title /></cc:Work></rdf:RDF></metadata><sodipodi:namedview
     pagecolor="#ffffff"
     bordercolor="#666666"
     borderopacity="1"
     objecttolerance="10"
     gridtolerance="10"
     guidetolerance="10"
     inkscape:pageopacity="0"
     inkscape:pageshadow="2"
     inkscape:window-width="1518"
     inkscape:window-height="727"
     id="namedview45"
     showgrid="false"
     inkscape:zoom="1.745121"
     inkscape:cx="387.0302"
     inkscape:cy="400.42162"
     inkscape:window-x="190"
     inkscape:window-y="39"
     inkscape:window-maximized="0"
     inkscape:current-layer="svg2" /><defs
     id="defs4"><style
       type="text/css"
       id="style6">
    .fil1 {fill:#004087}
    .fil2 {fill:#FF6700}
    .fil0 {fill:white}
    .fil3 {fill:#004087;fill-rule:nonzero}
    .fil5 {fill:#666666;fill-rule:nonzero}
    .fil4 {fill:#FF6700;fill-rule:nonzero}
   </style><clipPath
       id="id0"><rect
         x="2.04408"
         y="5.12226"
         width="1.69644"
         height="0.124839"
         id="rect9" /></clipPath></defs><g
     id="Layer_x0020_1"><metadata
       id="CorelCorpID_0Corel-Layer" /><polygon
       class="fil0"
       points="-0,0 11,0 11,8.5 -0,8.5 "
       id="polygon13" /></g><g
     id="Layer_x0020_2"><metadata
       id="CorelCorpID_1Corel-Layer" /><path
       class="fil1"
       d="M3.52062 3.6932l0.51035 -0.143665 -1.13333 -0.296626 -1.13893 0.30222 0.288252 0.069874c-0.158012,0.130075 -0.294441,0.29252 -0.377799,0.534571l-0.0944449 0.11963 0.150685 0.00909449 -0.00866929 -0.123126c0.0904567,-0.225413 0.226035,-0.40302 0.38365,-0.52722l0.175402 0.0425157c-0.0565197,0.0598031 -0.104437,0.127819 -0.141772,0.202067l0.154193 0c0.126437,-0.200323 0.34976,-0.333417 0.604102,-0.333417 0.254346,0 0.477665,0.133094 0.604102,0.333417l0.154193 0c-0.0347087,-0.0690315 -0.0785669,-0.132673 -0.12998,-0.189335z"
       id="path17"
       style="fill:#00779c;fill-opacity:1" /></g><path
     style="fill:#ff6700"
     inkscape:connector-curvature="0"
     id="path21"
     d="M 2.555312,4.34592 C 2.529599,4.365581 2.497466,4.37727 2.462607,4.37727 2.427745,4.37727 2.395611,4.365581 2.369902,4.34592 l -0.020177,0 c -0.033118,0 -0.060209,0.027087 -0.060209,0.060201 l 0,0.176268 C 2.361292,4.717543 2.477205,4.825696 2.618012,4.887629 2.628921,4.87672 2.635693,4.861672 2.635693,4.845117 l 0,-0.438996 c 0,-0.033114 -0.027091,-0.060201 -0.060201,-0.060201 l -0.020181,0 z M 2.591383,4.22453 c 0,-0.071114 -0.057665,-0.128776 -0.128776,-0.128776 -0.071106,0 -0.12878,0.057661 -0.12878,0.128776 0,0.056 0.035764,0.103661 0.085689,0.12139 0.013472,0.00479 0.027972,0.00739 0.043091,0.00739 0.015114,0 0.029614,-0.0026 0.043091,-0.00739 C 2.555627,4.328192 2.591383,4.28053 2.591383,4.22453 z m 0.572917,0.181591 0,0.438996 c 0,0.014189 0.00497,0.02726 0.013256,0.037583 C 3.323863,4.815228 3.442237,4.697456 3.510481,4.551578 l 0,-0.145457 C 3.510481,4.373007 3.483386,4.34592 3.45028,4.34592 l -0.020185,0 C 3.404382,4.365581 3.372245,4.37727 3.33739,4.37727 c -0.034862,0 -0.067,-0.011689 -0.092705,-0.03135 l -0.020185,0 c -0.033106,0 -0.060201,0.027087 -0.060201,0.060201 z M 3.4661739,4.22453 c 0,-0.071114 -0.057673,-0.128776 -0.128783,-0.128776 -0.07111,0 -0.128783,0.057661 -0.128783,0.128776 0,0.056 0.035764,0.103661 0.085693,0.12139 0.013469,0.00479 0.02798,0.00739 0.043091,0.00739 0.01511,0 0.029614,-0.0026 0.043091,-0.00739 0.049925,-0.017728 0.085693,-0.06539 0.085693,-0.12139 z"
     class="fil2"
     sodipodi:nodetypes="cscssccsssccssscscscsccsscscscccsscsccc" /><g
     id="Layer_x0020_5"><metadata
       id="CorelCorpID_4Corel-Layer" /><path
       class="fil1"
       d="M3.07154 4.13859c0,-0.0942638 -0.0764409,-0.170701 -0.170701,-0.170701 -0.0942559,0 -0.170697,0.076437 -0.170697,0.170701 0,0.0742205 0.0474055,0.137402 0.113583,0.160902 0.0178583,0.00634252 0.0370866,0.00979921 0.0571142,0.00979921 0.0200354,0 0.0392638,-0.00345669 0.057122,-0.00979921 0.0661772,-0.0235 0.113579,-0.0866811 0.113579,-0.160902zm-0.40013 0.240701l0 0.529181c0.0692795,0.0237087 0.143591,0.0365827 0.220894,0.0365827 0.0836969,0 0.163878,-0.0150866 0.237972,-0.042685l0 -0.523079c0,-0.0438858 -0.0359134,-0.0797992 -0.0798031,-0.0797992l-0.026748 0c-0.0340787,0.0260669 -0.0766772,0.0415591 -0.122886,0.0415591 -0.0462047,0 -0.0888031,-0.0154921 -0.122878,-0.0415591l-0.026752 0c-0.0438858,0 -0.0797992,0.0359134 -0.0797992,0.0797992z"
       id="path31"
       style="fill:#00779c;fill-opacity:1" /></g><g
     id="Layer_x0020_6"><metadata
       id="CorelCorpID_5Corel-Layer" /><path
       class="fil3"
       d="M4.34694 4.70042l0 -0.934213c0,-0.0302835 0.0106142,-0.0561732 0.0318425,-0.0773937 0.0212283,-0.0212283 0.0471102,-0.0318425 0.0773937,-0.0318425l0.397346 0c0.113118,0 0.196984,0.0243346 0.251602,0.0727402 0.0567008,0.0507323 0.0849134,0.124508 0.0849134,0.221579 0,0.0647126 -0.0142441,0.118295 -0.0424567,0.160752 -0.0243346,0.040374 -0.0626378,0.0696339 -0.115189,0.0880079 0.0465906,0.0160512 0.0789528,0.0403858 0.0970669,0.0727402 0.018122,0.0302835 0.029248,0.0817992 0.0333976,0.154799l0.00595276 0.124244c0,0.0121693 0,0.0253701 0,0.0393504 0,0.0142323 0.00103543,0.0274409 0.0031063,0.0396024 0.0062126,0.0362441 0.018122,0.0595433 0.0364961,0.0696339l-0.236594 0c-0.0103543,-0.0201929 -0.0163031,-0.0414213 -0.018374,-0.0636732 -0.00388189,-0.0323661 -0.00595276,-0.054622 -0.00595276,-0.0667913l-0.00311417 -0.112083c-0.00414173,-0.0608307 -0.0160433,-0.104319 -0.0364961,-0.130465 -0.0220039,-0.0222638 -0.0616063,-0.0333898 -0.118031,-0.0333898l-0.227539 0 0 0.406402 -0.21537 0zm1.80085 -0.266882l0.206311 0c0.00181102,0.0403858 0.0170866,0.0709252 0.0453031,0.0911181 0.0305433,0.0201929 0.0709213,0.0302835 0.121398,0.0302835 0.0365039,0 0.0678268,-0.00698819 0.0939685,-0.0212205 0.0243346,-0.0142402 0.0364961,-0.0333976 0.0364961,-0.0577244 0,-0.0362441 -0.0424449,-0.0636811 -0.127358,-0.0818031 -0.0364961,-0.0062126 -0.0636732,-0.0121654 -0.0820591,-0.018378 -0.107165,-0.0261417 -0.178862,-0.0574606 -0.215366,-0.0939646 -0.040378,-0.0365 -0.0605709,-0.0849055 -0.0605709,-0.145736 0,-0.0768819 0.029252,-0.140555 0.0880118,-0.191031 0.0608268,-0.0465984 0.13952,-0.0698976 0.236594,-0.0698976 0.105354,0 0.189224,0.0232992 0.251862,0.0696339 0.0587598,0.0507402 0.0900906,0.116484 0.0939685,0.197248l-0.130465 0c-0.0383031,0 -0.067563,-0.0170787 -0.087748,-0.0515118l0 0c-0.00827953,-0.00802362 -0.016311,-0.0160433 -0.0243346,-0.0243268 -0.0243307,-0.018122 -0.0577205,-0.027189 -0.100177,-0.027189 -0.040378,0 -0.0706693,0.00596063 -0.0911142,0.018122 -0.018122,0.0121732 -0.0271811,0.0305472 -0.0271811,0.0546181 0,0.0323583 0.0525472,0.0597953 0.157646,0.0820591 0.0121614,0.00388189 0.0227756,0.00698819 0.0318307,0.00905906 0.00906693,0.00207087 0.0176102,0.0031063 0.0258937,0.0031063 0.103024,0.0261496 0.17472,0.0566969 0.215106,0.0908622 0.0385669,0.0364961 0.0577244,0.0851614 0.0577244,0.145732 0,0.0890512 -0.0323583,0.157906 -0.0970669,0.206311 -0.0605787,0.0445276 -0.151693,0.0667795 -0.272839,0.0667795 -0.115449,0 -0.20139,-0.0232874 -0.257823,-0.0698858 -0.0587598,-0.0463346 -0.0880118,-0.114154 -0.0880118,-0.203205l0 -0.00905906zm-0.274823 0.018122l0.151693 0c-0.0222638,0.0849055 -0.0647205,0.149614 -0.127358,0.194142 -0.0626496,0.0465984 -0.141591,0.0698858 -0.236594,0.0698858 -0.115189,0 -0.205276,-0.0375315 -0.269988,-0.112343 -0.0647165,-0.0727323 -0.0970748,-0.176791 -0.0970748,-0.312433 0,-0.129429 0.0313228,-0.230646 0.0939685,-0.303386 0.0647126,-0.0748031 0.154799,-0.112343 0.269988,-0.112343 0.121398,0 0.215366,0.0365039 0.28215,0.109236 0.0647165,0.074811 0.0970709,0.178874 0.0970709,0.312445 0,0.00801969 0,0.0152756 0,0.0212283 0,0.00620866 0,0.0100906 0,0.0121614 0,0.0100984 -0.00103543,0.0170866 -0.0031063,0.0212283l-0.524701 0c0.00207087,0.0626378 0.0170866,0.109236 0.0455591,0.13952 0.0261457,0.0323543 0.065748,0.0486693 0.118295,0.0486693 0.0344331,0 0.063685,-0.00698819 0.0880157,-0.0212283 0.00595276,-0.00207087 0.0116496,-0.00568898 0.0165669,-0.0106142 0.00517717,-0.00517717 0.0106142,-0.0106142 0.0168268,-0.0168268 0.00180709,-0.00594882 0.00957874,-0.0139724 0.0225157,-0.0240709 0.0132047,-0.0100945 0.0321024,-0.0152717 0.0561732,-0.0152717zm-0.363953 -0.236594l0.309335 0c-0.00388189,-0.0546181 -0.018122,-0.0950039 -0.0424567,-0.121409 -0.0261417,-0.0282126 -0.0636732,-0.0424449 -0.112079,-0.0424449 -0.0445276,0 -0.0810236,0.0142323 -0.10924,0.0424449 -0.0284724,0.0284764 -0.0434882,0.0688622 -0.0455591,0.121409zm-0.946705 -0.103024l0.25161 0c0.0546181,0 0.0949961,-0.0111299 0.121402,-0.0333898 0.0261417,-0.0222638 0.0393465,-0.056689 0.0393465,-0.103287 0,-0.0463346 -0.0132047,-0.0807638 -0.0393465,-0.103024 -0.0243346,-0.0243346 -0.0608307,-0.0364961 -0.10924,-0.0364961l-0.263772 0 0 0.276197z"
       id="path35"
       style="fill:#ff6700;fill-opacity:1" /></g><g
     id="Layer_x0020_7"><metadata
       id="CorelCorpID_6Corel-Layer" /><path
       class="fil4"
       d="M6.98393 4.70042l0 -0.934213c0,-0.0302835 0.0106142,-0.0561732 0.0318425,-0.0773937 0.0212283,-0.0212283 0.0471102,-0.0318425 0.0773937,-0.0318425l0.382327 0c0.107169,0 0.188965,0.0222638 0.245654,0.0667835 0.056689,0.0484055 0.0849134,0.114157 0.0849134,0.197252 0,0.0525472 -0.0111378,0.0970669 -0.0334016,0.133311 -0.022252,0.0344252 -0.0535827,0.0618661 -0.0939567,0.0820591 0.0525472,0.0222598 0.0929213,0.0535827 0.121146,0.0939567 0.0261417,0.038315 0.0393425,0.0890551 0.0393425,0.151693 0,0.100957 -0.0323583,0.179909 -0.0970748,0.236598 -0.0667835,0.0546181 -0.160752,0.0817953 -0.28215,0.0817953l-0.476035 0zm1.74064 0l0 -0.160748 0.433839 -0.479142 -0.30648 0c-0.0282126,0 -0.0525472,-0.00957874 -0.0727402,-0.0287362 -0.0201929,-0.0194094 -0.0302835,-0.0432323 -0.0302835,-0.0714449l0 -0.0667835 0.661118 0 0 0.172913 -0.42763 0.457925 0.442898 0 0 0.176016 -0.70072 0zm-0.288441 -0.406402c-0.0282126,0.0142323 -0.067815,0.0271772 -0.118291,0.0393425 -0.0465984,0.0100984 -0.0696339,0.0152756 -0.0696339,0.0152756 -0.0365,0.0100906 -0.0629016,0.0232992 -0.0789528,0.0393425 -0.0142362,0.0222638 -0.0212205,0.0445236 -0.0212205,0.0667874 0,0.0302874 0.00905512,0.0546181 0.0271772,0.0727402 0.018374,0.0163071 0.0445197,0.0243268 0.0789528,0.0243268 0.056689,0 0.101209,-0.0163031 0.133563,-0.0486575 0.0323622,-0.0323661 0.0484055,-0.076622 0.0484055,-0.133311l0 -0.0758465zm0.0484094 0.373012c-0.0424488,0.0222638 -0.0874882,0.0359843 -0.134858,0.0411575 -0.0476339,0.00491732 -0.0895669,0.0075 -0.126063,0.0075 -0.0727402,0 -0.136425,-0.0196693 -0.191043,-0.0592717 -0.0546181,-0.0393504 -0.0817992,-0.104583 -0.0817992,-0.195697 0,-0.0849055 0.0248583,-0.145472 0.0742992,-0.181976 0.0494331,-0.0362362 0.112854,-0.0605709 0.189476,-0.0727402 0.0101024,0 0.0222638,-0.00155118 0.0364961,-0.00465748 0.0142441,-0.00284252 0.0302953,-0.00543701 0.0484055,-0.00750787 0.0890551,-0.0121614 0.133571,-0.0383031 0.133571,-0.0789528 0,-0.0302835 -0.0157874,-0.0499528 -0.0471102,-0.0590197 -0.0313189,-0.00905512 -0.0600551,-0.0137205 -0.0864606,-0.0137205 -0.0282126,0 -0.0535827,0.00414173 -0.0758346,0.0121732 -0.0222638,0.00801969 -0.038315,0.0230354 -0.0484094,0.0452992l-0.203205 0c0.00802362,-0.0626496 0.0362441,-0.114161 0.0849055,-0.154799 0.0546181,-0.0463346 0.132535,-0.0696339 0.233488,-0.0696339 0.113378,0 0.19828,0.0191575 0.254717,0.0577244 0.0587598,0.0403858 0.0880118,0.0970748 0.0880118,0.169815l0 0.276197c0,0.0807638 -0.0147559,0.144185 -0.0440079,0.189488 -0.029248,0.0455512 -0.0641969,0.0784291 -0.104579,0.098622zm-1.2943 -0.6065l0.24565 0c0.0525512,0 0.0911181,-0.00905906 0.115189,-0.0274409 0.0243346,-0.018122 0.0365039,-0.0463346 0.0365039,-0.0849016 0,-0.038315 -0.0121693,-0.0667913 -0.0365039,-0.0849055 -0.0201929,-0.016311 -0.0595315,-0.0243346 -0.118291,-0.0243346l-0.242547 0 0 0.221583zm0 0.451701l0.254709 0c0.056689,0 0.100181,-0.011126 0.130465,-0.0333898 0.0282126,-0.0201929 0.0424567,-0.0546181 0.0424567,-0.103028 0,-0.0484055 -0.0142441,-0.0838661 -0.0424567,-0.10613 -0.0264055,-0.0201929 -0.0706693,-0.0302835 -0.133571,-0.0302835l-0.251602 0 0 0.272831z"
       id="path39"
       style="fill:#00779c;fill-opacity:1" /></g><g
     id="Layer_x0020_8"><metadata
       id="CorelCorpID_7Corel-Layer" /><path
       class="fil5"
       d="M9.37175 4.9475c0,0.0131102 -0.00474409,0.0235472 -0.0142126,0.031315 -0.00947244,0.00777559 -0.0222205,0.0116614 -0.0382441,0.0116614l-0.0655709 0 0 -0.0855945 0.0652126 0c0.0167441,0 0.0297402,0.00357874 0.0389646,0.0107441 0.00922835,0.00716142 0.0138504,0.0177835 0.0138504,0.031874zm-2.37431 0.0641063l0 0.107453 0.0448031 0 0 -0.254976 -0.0448031 0 0 0.105992 -0.121657 0 0 -0.105992 -0.0448031 0 0 0.254976 0.0448031 0 0 -0.107453 0.121657 0zm-0.310535 0.0666575l-0.0287717 -0.0291457c-0.0109291,0.0102008 -0.0219724,0.0182795 -0.0331457,0.0242283 -0.0111654,0.00594882 -0.0245197,0.00892126 -0.040063,0.00892126 -0.0121457,0 -0.023378,-0.00236614 -0.0336929,-0.00710236 -0.0103189,-0.00473228 -0.019248,-0.0112283 -0.0267756,-0.0194921 -0.0075315,-0.00825197 -0.0133583,-0.0179016 -0.0174843,-0.0289567 -0.00412992,-0.0110472 -0.00619685,-0.0228819 -0.00619685,-0.0355118 0,-0.012622 0.00206693,-0.0244016 0.00619685,-0.0353268 0.00412598,-0.0109331 0.00995276,-0.0204685 0.0174843,-0.0285945 0.00752756,-0.00813386 0.0164567,-0.0145748 0.0267756,-0.0193071 0.010315,-0.00473622 0.0215472,-0.00710236 0.0336929,-0.00710236 0.0145709,0 0.0275591,0.00291732 0.0389764,0.00874409 0.0114055,0.00582283 0.0222205,0.0134764 0.0324134,0.0229449l0.0287795 -0.0331496c-0.00607874,-0.00583071 -0.0125039,-0.0111693 -0.019311,-0.0160276 -0.00679528,-0.00485039 -0.0141969,-0.00904331 -0.0222205,-0.0125669 -0.00800787,-0.00351575 -0.0168071,-0.00624409 -0.0264055,-0.00819291 -0.00958661,-0.00194094 -0.0202087,-0.00291732 -0.0318701,-0.00291732 -0.0194291,0 -0.0371535,0.0034685 -0.0531772,0.0103819 -0.0160315,0.00691339 -0.0298661,0.0163937 -0.0415276,0.0284134 -0.0116535,0.0120236 -0.0207008,0.0260433 -0.0271339,0.0420748 -0.00644094,0.0160276 -0.00964961,0.0331496 -0.00964961,0.0513504 0,0.0184606 0.00326772,0.0357047 0.00983071,0.0517283 0.00655512,0.0160276 0.0155945,0.0299291 0.0271417,0.0417008 0.0115354,0.0117795 0.025189,0.0210748 0.0409724,0.027874 0.0157835,0.00679921 0.0330276,0.0101969 0.0517244,0.0101969 0.0119055,0 0.0227598,-0.0010315 0.0325984,-0.00309843 0.00983465,-0.00205906 0.0188819,-0.00510236 0.0271339,-0.00909843 0.00825984,-0.00401181 0.0159685,-0.00874409 0.0231339,-0.0142126 0.00716142,-0.00546457 0.0140197,-0.0117165 0.0205709,-0.0187559zm-0.419425 -0.130764c0,0.0131102 -0.00474409,0.0235472 -0.0142126,0.031315 -0.00947244,0.00777559 -0.0222165,0.0116614 -0.0382441,0.0116614l-0.0655669 0 0 -0.0855945 0.0652087 0c0.0167441,0 0.0297441,0.00357874 0.0389646,0.0107441 0.00923622,0.00716142 0.0138504,0.0177835 0.0138504,0.031874zm0.0535354 0.171559l-0.0688346 -0.0965315c0.00898031,-0.00242126 0.0171732,-0.00588583 0.0245748,-0.010374 0.00742126,-0.0045 0.0137913,-0.00995669 0.0191299,-0.0163976 0.00533858,-0.00642913 0.00953543,-0.0138386 0.0125709,-0.0222126 0.00302756,-0.00837795 0.00455512,-0.0179134 0.00455512,-0.0285984 0,-0.0123819 -0.00218898,-0.0236142 -0.00655906,-0.033685 -0.00437402,-0.0100827 -0.0106299,-0.0185787 -0.0187598,-0.0255079 -0.00813386,-0.00691732 -0.0180866,-0.0122638 -0.0298701,-0.0160236 -0.0117795,-0.00376772 -0.0249449,-0.00564567 -0.0395157,-0.00564567l-0.113646 0 0 0.254976 0.0447953 0 0 -0.0888819 0.0561024 0 0.0626417 0.0888819 0.052815 0zm-0.446756 -0.101264l-0.0877795 0 0.0437165 -0.101984 0.044063 0.101984zm-0.0225787 -0.155531l-0.0415236 0 -0.112185 0.256795 0.0458937 0 0.0262205 -0.0615551 0.120575 0 0.0258543 0.0615551 0.0473504 0 -0.112185 -0.256795zm-0.283945 0.0018189l-0.189035 0 0 0.254976 0.190866 0 0 -0.0400709 -0.146071 0 0 -0.0684724 0.127854 0 0 -0.0400709 -0.127854 0 0 -0.0662874 0.14424 0 0 -0.0400748zm-0.481354 0.0666535c0,-0.00849606 0.00364567,-0.0157165 0.0109291,-0.0216693 0.00728346,-0.00595276 0.0174843,-0.0089252 0.0305984,-0.0089252 0.0116496,0 0.0231929,0.00224803 0.0346024,0.00674016 0.0114094,0.00448819 0.0229449,0.0109921 0.0345984,0.0194882l0.0240433 -0.033874c-0.0131142,-0.0104409 -0.0271339,-0.0183976 -0.0420669,-0.0238543 -0.014937,-0.00546457 -0.031752,-0.00819685 -0.0504488,-0.00819685 -0.0126299,0 -0.0242874,0.00175591 -0.0349685,0.00527953 -0.010685,0.00351575 -0.0198543,0.00855512 -0.0275,0.0151181 -0.00764961,0.00655118 -0.0136614,0.014378 -0.0180276,0.0234882 -0.00437795,0.00910236 -0.00656299,0.0192441 -0.00656299,0.0304213 0,0.0118937 0.00188976,0.0219724 0.00564961,0.0302283 0.00376772,0.00825591 0.00922441,0.0153071 0.0163898,0.0211339 0.00716929,0.00581496 0.0160236,0.0106811 0.0265906,0.014563 0.0105591,0.00388583 0.0226457,0.00740157 0.0362402,0.010563 0.0118937,0.00292126 0.0215551,0.00570866 0.0289606,0.00838189 0.00740157,0.00266535 0.0132323,0.00551969 0.0174882,0.00855906 0.00424803,0.00302756 0.00716142,0.00637008 0.00873622,0.0100197 0.0015748,0.0036378 0.0023622,0.00776378 0.0023622,0.012374 0,0.00996063 -0.00405906,0.0178504 -0.0122008,0.0236772 -0.00813386,0.00583465 -0.0191142,0.00874016 -0.0329606,0.00874016 -0.0160236,0 -0.0303543,-0.00285433 -0.0429803,-0.00855118 -0.012626,-0.0057126 -0.0251339,-0.0139055 -0.0375197,-0.0245945l-0.0269567 0.032063c0.0153031,0.0138346 0.031937,0.0241024 0.0499016,0.0307717 0.0179724,0.0066811 0.0367913,0.0100118 0.0564646,0.0100118 0.0133583,0 0.0256181,-0.00169291 0.0367835,-0.00509055 0.0111732,-0.00339764 0.0207717,-0.00837402 0.0287756,-0.014937 0.00801575,-0.00655118 0.0142717,-0.0145709 0.0187638,-0.0240394 0.00449213,-0.0094685 0.00674016,-0.0202756 0.00674016,-0.0324213 0,-0.0106811 -0.00176378,-0.0199646 -0.0052874,-0.0278583 -0.00351575,-0.0078937 -0.0086811,-0.014815 -0.0154803,-0.0207598 -0.00679528,-0.00595669 -0.0153622,-0.0109961 -0.0256732,-0.015126 -0.0103228,-0.00412205 -0.0221575,-0.00788976 -0.0355118,-0.0112835 -0.0121535,-0.00291732 -0.0221654,-0.00571654 -0.0300512,-0.00837795 -0.0078937,-0.00267717 -0.0140827,-0.00559449 -0.0185827,-0.00874803 -0.00449606,-0.00315354 -0.00758661,-0.00655118 -0.00928346,-0.0101929 -0.00170079,-0.00364567 -0.00255512,-0.00801969 -0.00255512,-0.013122zm-0.189965 -0.0666535l-0.189039 0 0 0.254976 0.190862 0 0 -0.0400709 -0.146071 0 0 -0.0684724 0.127858 0 0 -0.0400709 -0.127858 0 0 -0.0662874 0.144248 0 0 -0.0400748zm-0.38665 0.0834173c0,0.0131102 -0.00474016,0.0235472 -0.0142087,0.031315 -0.00947244,0.00777559 -0.0222205,0.0116614 -0.038248,0.0116614l-0.0655669 0 0 -0.0855945 0.0652087 0c0.016752,0 0.029748,0.00357874 0.0389646,0.0107441 0.00923622,0.00716142 0.0138504,0.0177835 0.0138504,0.031874zm0.0535354 0.171559l-0.0688346 -0.0965315c0.00898031,-0.00242126 0.0171772,-0.00588583 0.0245827,-0.010374 0.00741339,-0.0045 0.0137835,-0.00995669 0.019122,-0.0163976 0.00534646,-0.00642913 0.00953543,-0.0138386 0.0125709,-0.0222126 0.00303543,-0.00837795 0.00455906,-0.0179134 0.00455906,-0.0285984 0,-0.0123819 -0.00219291,-0.0236142 -0.00656299,-0.033685 -0.00437402,-0.0100827 -0.0106299,-0.0185787 -0.0187598,-0.0255079 -0.00813386,-0.00691732 -0.0180866,-0.0122638 -0.0298701,-0.0160236 -0.0117795,-0.00376772 -0.0249409,-0.00564567 -0.0395157,-0.00564567l-0.113646 0 0 0.254976 0.0447953 0 0 -0.0888819 0.0561024 0 0.0626457 0.0888819 0.052811 0zm4.86198 0l-0.0688346 -0.0965315c0.00897638,-0.00242126 0.0171693,-0.00588583 0.0245748,-0.010374 0.00741339,-0.0045 0.0137835,-0.00995669 0.0191299,-0.0163976 0.00534252,-0.00642913 0.00953543,-0.0138386 0.0125669,-0.0222126 0.0030315,-0.00837795 0.00455512,-0.0179134 0.00455512,-0.0285984 0,-0.0123819 -0.00218898,-0.0236142 -0.00655512,-0.033685 -0.00437795,-0.0100827 -0.0106299,-0.0185787 -0.0187598,-0.0255079 -0.0081378,-0.00691732 -0.0180984,-0.0122638 -0.029878,-0.0160236 -0.0117717,-0.00376772 -0.024937,-0.00564567 -0.0395157,-0.00564567l-0.113638 0 0 0.254976 0.0447913 0 0 -0.0888819 0.0561024 0 0.0626457 0.0888819 0.052815 0zm-0.446756 -0.101264l-0.0877874 0 0.0437244 -0.101984 0.044063 0.101984zm-0.0225787 -0.155531l-0.0415315 0 -0.112177 0.256795 0.0458937 0 0.0262165 -0.0615551 0.120575 0 0.0258583 0.0615551 0.0473504 0 -0.112185 -0.256795zm-0.35715 0.155531l-0.0877913 0 0.0437205 -0.101984 0.0440709 0.101984zm-0.0225866 -0.155531l-0.0415236 0 -0.112185 0.256795 0.0458937 0 0.0262244 -0.0615551 0.120571 0 0.0258622 0.0615551 0.0473504 0 -0.112193 -0.256795zm-0.343307 0.0415276l-0.150437 0.182122 0 0.0331457 0.208717 0 0 -0.0397087 -0.150441 0 0.150441 -0.182118 0 -0.0331496 -0.203988 0 0 0.0397087 0.145709 0zm-0.371724 0.114004l-0.0877874 0 0.0437126 -0.101984 0.0440748 0.101984zm-0.0225866 -0.155531l-0.0415236 0 -0.112185 0.256795 0.0459016 0 0.0262165 -0.0615551 0.120575 0 0.0258543 0.0615551 0.0473504 0 -0.112189 -0.256795zm-0.373543 0.217087l-0.0743031 0 0 -0.0699331 0.0710276 0c0.0177244,0 0.0309055,0.00303937 0.0395236,0.0091063 0.00862205,0.00606693 0.0129252,0.0145748 0.0129252,0.0254961 0,0.0116535 -0.00436614,0.0204606 -0.0131102,0.0264134 -0.00874409,0.00594488 -0.0207638,0.00891732 -0.036063,0.00891732zm-0.0131102 -0.107811l-0.0611929 0 0 -0.067748 0.0644724 0c0.0145709,0 0.0256732,0.00285039 0.0333268,0.00855906 0.00764961,0.00569685 0.0114803,0.0137756 0.0114803,0.0242126 0,0.0119055 -0.00437795,0.0207047 -0.0131181,0.0264134 -0.00874409,0.00570866 -0.0203976,0.00856299 -0.0349685,0.00856299zm0.0091063 -0.107457l-0.11437 0 0 0.254976 0.118012 0c0.0140866,0 0.0269528,-0.00151181 0.0386142,-0.00455906 0.0116575,-0.00303543 0.0216142,-0.00752756 0.0298701,-0.0134764 0.00825591,-0.00594488 0.014626,-0.0132874 0.0191102,-0.0220354 0.0045,-0.00874016 0.00674409,-0.0188228 0.00674409,-0.0302283 0,-0.00874409 -0.0012126,-0.0164488 -0.00363386,-0.0231299 -0.00242913,-0.00667717 -0.0058937,-0.0124488 -0.0103858,-0.0172953 -0.00449606,-0.0048622 -0.00983465,-0.00905512 -0.0160236,-0.0125787 -0.00619685,-0.00351969 -0.0130591,-0.00661417 -0.0205787,-0.00928346 0.00460236,-0.00242913 0.00915748,-0.00534252 0.0136575,-0.00874016 0.00449213,-0.00340157 0.00837402,-0.00734252 0.0116535,-0.0118465 0.00327165,-0.00448425 0.00594488,-0.00977165 0.00800787,-0.0158425 0.00206693,-0.00606693 0.00309449,-0.0129921 0.00309449,-0.0207598 0,-0.0201535 -0.00751969,-0.036063 -0.0225748,-0.0477165 -0.015063,-0.0116575 -0.0354528,-0.0174843 -0.0611969,-0.0174843z"
       id="path43" /></g><path
     class="fil2"
     d="m 2.07469,4.0459282 c -0.019945,0.072114 -0.030598,0.148071 -0.030598,0.226524 0,0.468378 0.379839,0.848217 0.84822,0.848217 0.468378,0 0.848217,-0.379839 0.848217,-0.848217 0,-0.078453 -0.010658,-0.154409 -0.030602,-0.226524 l -0.140476,0 c 0.023807,0.071177 0.036705,0.147343 0.036705,0.226524 0,0.394181 -0.319665,0.713843 -0.713843,0.713843 -0.394185,0 -0.71385,-0.319661 -0.71385,-0.713843 0,-0.079181 0.012898,-0.155346 0.036705,-0.226524 l -0.140476,0 z"
     id="path3848"
     inkscape:connector-curvature="0"
     style="fill:#00779c;fill-opacity:1"
     sodipodi:nodetypes="csssccsssccc" /></svg>